<svg xmlns="http://www.w3.org/2000/svg" width="160" height="160" viewBox="0 0 160 160">
  <rect width="160" height="160" fill="#111c2d" />
  <g fill="none" stroke="#1c2c45" stroke-width="0.6" stroke-linecap="round">
    <path d="M0 8h160M0 40h160M0 72h160M0 104h160M0 136h160" opacity="0.14" />
    <path d="M8 0v160M40 0v160M72 0v160M104 0v160M136 0v160" opacity="0.12" />
  </g>
  <g fill="#253652" opacity="0.18">
    <circle cx="24" cy="20" r="1.6" />
    <circle cx="140" cy="36" r="1.4" />
    <circle cx="48" cy="112" r="1.8" />
    <circle cx="92" cy="68" r="1.2" />
    <circle cx="116" cy="124" r="1.5" />
    <circle cx="20" cy="144" r="1.3" />
    <circle cx="132" cy="88" r="1.6" />
    <circle cx="80" cy="20" r="1.1" />
  </g>
  <g fill="#09101b" opacity="0.2">
    <circle cx="52" cy="32" r="1" />
    <circle cx="108" cy="44" r="0.9" />
    <circle cx="28" cy="92" r="1.2" />
    <circle cx="72" cy="140" r="1.1" />
    <circle cx="124" cy="16" r="0.95" />
    <circle cx="150" cy="120" r="0.9" />
  </g>
  <g fill="#f0ede0" opacity="0.075">
    <circle cx="32" cy="60" r="0.9" />
    <circle cx="92" cy="100" r="0.9" />
    <circle cx="144" cy="60" r="0.8" />
    <circle cx="60" cy="148" r="0.7" />
    <circle cx="12" cy="36" r="0.7" />
    <circle cx="112" cy="12" r="0.8" />
  </g>
</svg>



